# Blender v2.90.0 OBJ File: 'untitled.blend'
# www.blender.org
mtllib modelwayfinder.mtl
o Cube_Cube.001
v 0.000000 -0.796555 1.000000
v 0.000000 -0.618244 0.917712
v -0.642398 -0.618244 0.917712
v -0.700000 -0.796555 1.000000
v 0.000000 1.000000 0.000000
v -0.119640 1.000000 0.000000
v -0.119640 1.000000 0.119640
v 0.000000 1.000000 0.119640
v -1.000000 -1.000000 1.000000
v -1.000000 -0.796555 1.000000
v -1.000000 -0.796555 0.700000
v -1.000000 -1.000000 0.700000
v -0.164245 0.861920 0.234636
v -0.119640 1.000000 0.170914
v -0.170914 1.000000 0.170914
v -0.234636 0.861920 0.234636
v -0.170914 1.000000 0.000000
v -0.170914 1.000000 0.119640
v -0.700000 -1.000000 1.000000
v -0.700000 -1.000000 0.700000
v 0.000000 -0.639195 0.872313
v -0.642398 -0.639195 0.872313
v -0.917712 -0.618244 0.642398
v -0.917712 -0.618244 -0.000000
v -1.000000 -0.796555 -0.000000
v -1.000000 -1.000000 -0.000000
v -0.917712 -0.618244 0.917712
v -0.234636 0.861920 0.164245
v 0.000000 0.861920 0.234636
v 0.000000 1.000000 0.170914
v 0.000000 -1.000000 1.000000
v -0.234636 0.861920 0.000000
v -0.700000 -1.000000 -0.000000
v 0.000000 -1.000000 0.700000
v 0.000000 -1.000000 -0.000000
v -0.872313 -0.639195 0.642398
v -0.189237 0.840969 0.164245
v -0.189237 0.840969 0.000000
v -0.872313 -0.639195 -0.000000
v 0.000000 0.840969 0.189237
v -0.164245 0.840969 0.189237
v 0.700000 -0.796555 1.000000
v 0.642398 -0.618244 0.917712
v 0.119640 1.000000 0.119640
v 0.119640 1.000000 0.000000
v 1.000000 -1.000000 1.000000
v 1.000000 -1.000000 0.700000
v 1.000000 -0.796555 0.700000
v 1.000000 -0.796555 1.000000
v 0.164245 0.861920 0.234636
v 0.234636 0.861920 0.234636
v 0.170914 1.000000 0.170914
v 0.119640 1.000000 0.170914
v 0.170914 1.000000 0.119640
v 0.170914 1.000000 0.000000
v 0.700000 -1.000000 1.000000
v 0.700000 -1.000000 0.700000
v 0.642398 -0.639195 0.872313
v 1.000000 -0.796555 -0.000000
v 0.917712 -0.618244 -0.000000
v 0.917712 -0.618244 0.642398
v 1.000000 -1.000000 -0.000000
v 0.917712 -0.618244 0.917712
v 0.234636 0.861920 0.164245
v 0.234636 0.861920 0.000000
v 0.700000 -1.000000 -0.000000
v 0.872313 -0.639195 0.642398
v 0.872313 -0.639195 -0.000000
v 0.189237 0.840969 0.000000
v 0.189237 0.840969 0.164245
v 0.164245 0.840969 0.189237
v 0.000000 -0.796555 -1.000000
v -0.700000 -0.796555 -1.000000
v -0.642398 -0.618244 -0.917712
v 0.000000 -0.618244 -0.917712
v 0.000000 1.000000 -0.119640
v -0.119640 1.000000 -0.119640
v -1.000000 -1.000000 -1.000000
v -1.000000 -1.000000 -0.700000
v -1.000000 -0.796555 -0.700000
v -1.000000 -0.796555 -1.000000
v -0.164245 0.861920 -0.234636
v -0.234636 0.861920 -0.234636
v -0.170914 1.000000 -0.170914
v -0.119640 1.000000 -0.170914
v -0.170914 1.000000 -0.119640
v -0.700000 -1.000000 -1.000000
v -0.700000 -1.000000 -0.700000
v -0.642398 -0.639195 -0.872313
v 0.000000 -0.639195 -0.872313
v -0.917712 -0.618244 -0.642398
v -0.917712 -0.618244 -0.917712
v -0.234636 0.861920 -0.164245
v 0.000000 0.861920 -0.234636
v 0.000000 1.000000 -0.170914
v 0.000000 -1.000000 -1.000000
v 0.000000 -1.000000 -0.700000
v -0.872313 -0.639195 -0.642398
v -0.189237 0.840969 -0.164245
v -0.164245 0.840969 -0.189237
v 0.000000 0.840969 -0.189237
v 0.642398 -0.618244 -0.917712
v 0.700000 -0.796555 -1.000000
v 0.119640 1.000000 -0.119640
v 1.000000 -1.000000 -1.000000
v 1.000000 -0.796555 -1.000000
v 1.000000 -0.796555 -0.700000
v 1.000000 -1.000000 -0.700000
v 0.164245 0.861920 -0.234636
v 0.119640 1.000000 -0.170914
v 0.170914 1.000000 -0.170914
v 0.234636 0.861920 -0.234636
v 0.170914 1.000000 -0.119640
v 0.700000 -1.000000 -1.000000
v 0.700000 -1.000000 -0.700000
v 0.642398 -0.639195 -0.872313
v 0.917712 -0.618244 -0.642398
v 0.917712 -0.618244 -0.917712
v 0.234636 0.861920 -0.164245
v 0.872313 -0.639195 -0.642398
v 0.189237 0.840969 -0.164245
v 0.164245 0.840969 -0.189237
vt 0.648698 0.904698
vt 0.615568 0.904698
vt 0.615568 0.796325
vt 0.648698 0.786607
vt 0.917047 0.963436
vt 0.917047 0.943253
vt 0.937230 0.943253
vt 0.937230 0.963436
vt 0.919525 0.214809
vt 0.953846 0.214809
vt 0.953846 0.265420
vt 0.919525 0.265420
vt 0.971840 0.084720
vt 0.974815 0.058150
vt 0.982792 0.061493
vt 0.982792 0.089309
vt 0.624218 0.988577
vt 0.615568 0.988577
vt 0.615568 0.968394
vt 0.624218 0.968394
vt 0.035641 0.985350
vt 0.035641 0.976700
vt 0.044291 0.976700
vt 0.044291 0.985350
vt 0.479484 0.941850
vt 0.479484 0.907529
vt 0.530094 0.907529
vt 0.530094 0.941850
vt 0.315226 0.933401
vt 0.264616 0.933401
vt 0.264616 0.882791
vt 0.315226 0.882791
vt 0.117370 0.958706
vt 0.008997 0.958706
vt 0.008997 0.950271
vt 0.117370 0.950271
vt 0.195498 0.932277
vt 0.162369 0.922559
vt 0.162369 0.814187
vt 0.195498 0.814187
vt 0.385772 0.783408
vt 0.420093 0.783408
vt 0.420093 0.901498
vt 0.385772 0.901498
vt 0.658405 0.329761
vt 0.658405 0.627940
vt 0.647453 0.632529
vt 0.615568 0.347711
vt 0.615568 0.293817
vt 0.647454 0.008997
vt 0.658405 0.013586
vt 0.658405 0.311767
vt 0.891316 0.922694
vt 0.891316 0.948349
vt 0.871132 0.948349
vt 0.863608 0.922694
vt 0.302003 0.765414
vt 0.302003 0.731093
vt 0.420093 0.731093
vt 0.420093 0.765414
vt 0.798062 0.281166
vt 0.823717 0.288690
vt 0.823717 0.308874
vt 0.798062 0.308874
vt 0.778133 0.889535
vt 0.745003 0.899252
vt 0.745003 0.852807
vt 0.778133 0.838925
vt 0.989982 0.466868
vt 0.989982 0.487051
vt 0.981332 0.487051
vt 0.981332 0.466868
vt 0.950177 0.846937
vt 0.917047 0.833055
vt 0.917047 0.786609
vt 0.950177 0.796327
vt 0.798062 0.145081
vt 0.848672 0.145081
vt 0.848672 0.263172
vt 0.798062 0.263172
vt 0.982792 0.107303
vt 0.982792 0.135119
vt 0.974815 0.138462
vt 0.971840 0.111892
vt 0.263172 0.701159
vt 0.145081 0.701159
vt 0.145081 0.650549
vt 0.263172 0.650549
vt 0.145081 0.514465
vt 0.263172 0.514465
vt 0.263172 0.632555
vt 0.145081 0.632555
vt 0.302003 0.577015
vt 0.382667 0.302003
vt 0.410376 0.302003
vt 0.410376 0.577015
vt 0.410376 0.008997
vt 0.410376 0.284009
vt 0.382668 0.284009
vt 0.302003 0.008997
vt 0.859356 0.329761
vt 0.859355 0.616367
vt 0.850920 0.616367
vt 0.850921 0.329761
vt 0.875101 0.008997
vt 0.875101 0.295603
vt 0.866666 0.295603
vt 0.866667 0.008997
vt 0.989767 0.375463
vt 0.989767 0.403171
vt 0.981332 0.403171
vt 0.981332 0.375463
vt 0.978988 0.650525
vt 0.978988 0.758898
vt 0.970554 0.758898
vt 0.970554 0.650525
vt 0.575796 0.969330
vt 0.548088 0.969330
vt 0.548088 0.960895
vt 0.575796 0.960895
vt 0.246622 0.814187
vt 0.246622 0.932277
vt 0.213492 0.922559
vt 0.213492 0.814187
vt 0.955224 0.943253
vt 0.975407 0.943253
vt 0.975407 0.963436
vt 0.955224 0.963436
vt 0.952559 0.650525
vt 0.952559 0.701135
vt 0.918238 0.701135
vt 0.918238 0.650525
vt 0.971840 0.161045
vt 0.982792 0.156456
vt 0.982792 0.184272
vt 0.974814 0.187615
vt 0.975086 0.629322
vt 0.954903 0.629322
vt 0.954903 0.620672
vt 0.975086 0.620672
vt 0.976821 0.921626
vt 0.968171 0.921626
vt 0.968171 0.912976
vt 0.976821 0.912976
vt 0.953846 0.008997
vt 0.953846 0.059607
vt 0.919525 0.059607
vt 0.919525 0.008997
vt 0.315226 0.864797
vt 0.264616 0.864797
vt 0.264616 0.814187
vt 0.315226 0.814187
vt 0.333457 0.927927
vt 0.333457 0.919493
vt 0.441829 0.919493
vt 0.441829 0.927927
vt 0.111245 0.932277
vt 0.111245 0.814187
vt 0.144375 0.814187
vt 0.144375 0.922559
vt 0.847929 0.650525
vt 0.847929 0.768615
vt 0.813608 0.768615
vt 0.813608 0.650525
vt 0.597574 0.311767
vt 0.554737 0.293817
vt 0.586622 0.008997
vt 0.597574 0.013586
vt 0.737231 0.026947
vt 0.780068 0.008997
vt 0.780068 0.307178
vt 0.769116 0.311767
vt 0.641223 0.922692
vt 0.641223 0.950400
vt 0.615568 0.942875
vt 0.615568 0.922692
vt 0.615568 0.768613
vt 0.615568 0.650523
vt 0.649890 0.650523
vt 0.649890 0.768613
vt 0.745003 0.944954
vt 0.745003 0.917246
vt 0.770658 0.917246
vt 0.770658 0.937429
vt 0.581218 0.848642
vt 0.581218 0.899252
vt 0.548088 0.885370
vt 0.548088 0.838925
vt 0.353640 0.972351
vt 0.353640 0.981001
vt 0.333457 0.981001
vt 0.333457 0.972351
vt 0.903779 0.546732
vt 0.903779 0.496122
vt 0.936909 0.486404
vt 0.936909 0.532850
vt 0.745003 0.768615
vt 0.745003 0.650525
vt 0.795614 0.650525
vt 0.795614 0.768615
vt 0.982792 0.285921
vt 0.971840 0.281332
vt 0.974814 0.254762
vt 0.982792 0.258105
vt 0.008997 0.701159
vt 0.008997 0.650549
vt 0.127087 0.650549
vt 0.127087 0.701159
vt 0.008997 0.632555
vt 0.008997 0.514465
vt 0.127087 0.514465
vt 0.127087 0.632555
vt 0.284009 0.008997
vt 0.284009 0.117370
vt 0.008997 0.117370
vt 0.008997 0.089662
vt 0.008997 0.243737
vt 0.008997 0.135364
vt 0.284009 0.216029
vt 0.284009 0.243737
vt 0.877349 0.329761
vt 0.885785 0.329761
vt 0.885785 0.616367
vt 0.877351 0.616367
vt 0.832926 0.616367
vt 0.824491 0.616367
vt 0.824492 0.329761
vt 0.832926 0.329761
vt 0.981332 0.421165
vt 0.989767 0.421165
vt 0.989767 0.448874
vt 0.981332 0.448874
vt 0.963338 0.564501
vt 0.954903 0.564501
vt 0.954903 0.456128
vt 0.963338 0.456128
vt 0.863608 0.974778
vt 0.863608 0.966343
vt 0.891316 0.966343
vt 0.891316 0.974778
vt 0.042127 0.814187
vt 0.042127 0.932277
vt 0.008997 0.922559
vt 0.008997 0.814187
vt 0.975086 0.602678
vt 0.954903 0.602678
vt 0.954903 0.582495
vt 0.975086 0.582495
vt 0.953846 0.077601
vt 0.953846 0.128211
vt 0.919525 0.128211
vt 0.919525 0.077601
vt 0.971840 0.210199
vt 0.982792 0.205609
vt 0.982792 0.233425
vt 0.974814 0.236768
vt 0.650862 0.968394
vt 0.650862 0.988577
vt 0.642212 0.988577
vt 0.642212 0.968394
vt 0.456639 0.981001
vt 0.447989 0.981001
vt 0.447989 0.972351
vt 0.456639 0.972351
vt 0.676399 0.907529
vt 0.727009 0.907529
vt 0.727009 0.941850
vt 0.676399 0.941850
vt 0.530094 0.838925
vt 0.530094 0.889535
vt 0.479484 0.889535
vt 0.479484 0.838925
vt 0.441829 0.945922
vt 0.441829 0.954357
vt 0.333457 0.954357
vt 0.333457 0.945922
vt 0.899053 0.786609
vt 0.899053 0.904700
vt 0.865923 0.904700
vt 0.865923 0.796327
vt 0.333457 0.901498
vt 0.333457 0.783408
vt 0.367778 0.783408
vt 0.367778 0.901498
vt 0.597574 0.632531
vt 0.554737 0.614581
vt 0.586622 0.329761
vt 0.597574 0.334350
vt 0.676399 0.347711
vt 0.719237 0.329761
vt 0.719237 0.627942
vt 0.708285 0.632531
vt 0.575796 0.942901
vt 0.548088 0.942901
vt 0.555613 0.917246
vt 0.575796 0.917246
vt 0.597574 0.820930
vt 0.479484 0.820930
vt 0.479484 0.786609
vt 0.597574 0.786609
vt 0.918238 0.746837
vt 0.918238 0.719129
vt 0.943893 0.719129
vt 0.943893 0.739312
vt 0.936909 0.417800
vt 0.936909 0.468410
vt 0.903779 0.454528
vt 0.903779 0.408083
vt 0.391817 0.972351
vt 0.391817 0.981001
vt 0.371634 0.981001
vt 0.371634 0.972351
vt 0.903779 0.390089
vt 0.903779 0.339479
vt 0.936909 0.329761
vt 0.936909 0.376207
vt 0.727009 0.650525
vt 0.727009 0.768615
vt 0.676399 0.768615
vt 0.676399 0.650525
vt 0.490436 0.991003
vt 0.479484 0.986414
vt 0.482458 0.959844
vt 0.490436 0.963187
vt 0.008997 0.769763
vt 0.008997 0.719153
vt 0.127087 0.719153
vt 0.127087 0.769763
vt 0.479484 0.650525
vt 0.597574 0.650525
vt 0.597574 0.768615
vt 0.479484 0.768615
vt 0.284009 0.261731
vt 0.284009 0.370104
vt 0.008997 0.370104
vt 0.008997 0.342396
vt 0.284009 0.388098
vt 0.284009 0.496471
vt 0.008997 0.415806
vt 0.008997 0.388098
vt 0.295603 0.787757
vt 0.295603 0.796193
vt 0.008997 0.796192
vt 0.008997 0.787758
vt 0.806497 0.616367
vt 0.798062 0.616367
vt 0.798063 0.329761
vt 0.806497 0.329761
vt 0.516865 0.987552
vt 0.508430 0.987552
vt 0.508430 0.959844
vt 0.516865 0.959844
vt 0.135364 0.958706
vt 0.135364 0.950271
vt 0.243736 0.950271
vt 0.243736 0.958706
vt 0.745003 0.971383
vt 0.745003 0.962948
vt 0.772712 0.962948
vt 0.772712 0.971383
vt 0.060121 0.814187
vt 0.093251 0.814187
vt 0.093251 0.922559
vt 0.060121 0.932277
vt 0.284800 0.951395
vt 0.284800 0.971578
vt 0.264616 0.971578
vt 0.264616 0.951395
vt 0.953846 0.196815
vt 0.919525 0.196815
vt 0.919525 0.146205
vt 0.953846 0.146205
vt 0.971840 0.035567
vt 0.974814 0.008997
vt 0.982792 0.012340
vt 0.982792 0.040156
vt 0.812484 0.977046
vt 0.812484 0.968396
vt 0.832667 0.968396
vt 0.832667 0.977046
vt 0.017647 0.976700
vt 0.017647 0.985350
vt 0.008997 0.985350
vt 0.008997 0.976700
vt 0.515127 0.595009
vt 0.515127 0.629330
vt 0.464516 0.629330
vt 0.464516 0.595009
vt 0.676399 0.838925
vt 0.727009 0.838925
vt 0.727009 0.889535
vt 0.676399 0.889535
vt 0.954903 0.438134
vt 0.954903 0.329761
vt 0.963338 0.329761
vt 0.963338 0.438134
vt 0.845613 0.904700
vt 0.812484 0.894982
vt 0.812484 0.786609
vt 0.845613 0.786609
vt 0.900244 0.768615
vt 0.865923 0.768615
vt 0.865923 0.650525
vt 0.900244 0.650525
vt 0.780068 0.329761
vt 0.780068 0.627940
vt 0.769115 0.632529
vt 0.737231 0.347711
vt 0.676399 0.293817
vt 0.708285 0.008997
vt 0.719237 0.013586
vt 0.719237 0.311767
vt 0.812484 0.922694
vt 0.838139 0.922694
vt 0.838139 0.942877
vt 0.812484 0.950402
vt 0.794490 0.786609
vt 0.794490 0.820931
vt 0.676399 0.820931
vt 0.676399 0.786609
vt 0.919525 0.309069
vt 0.927050 0.283414
vt 0.947233 0.283414
vt 0.947233 0.309069
vt 0.903779 0.574443
vt 0.936909 0.564726
vt 0.936909 0.611172
vt 0.903779 0.625054
vt 0.409811 0.972351
vt 0.429995 0.972351
vt 0.429995 0.981001
vt 0.409811 0.981001
vt 0.917047 0.864931
vt 0.950177 0.878813
vt 0.950177 0.925259
vt 0.917047 0.915541
vt 0.798062 0.008997
vt 0.848672 0.008997
vt 0.848672 0.127087
vt 0.798062 0.127087
vt 0.313746 0.951395
vt 0.313746 0.979211
vt 0.305768 0.982554
vt 0.302794 0.955984
vt 0.145081 0.719153
vt 0.263172 0.719153
vt 0.263172 0.769763
vt 0.145081 0.769763
vt 0.302003 0.713099
vt 0.302003 0.595009
vt 0.420093 0.595009
vt 0.420093 0.713099
vt 0.428370 0.577015
vt 0.509034 0.302003
vt 0.536742 0.302003
vt 0.536743 0.577015
vt 0.536743 0.008997
vt 0.536743 0.284009
vt 0.509035 0.284009
vt 0.428370 0.008997
vt 0.901531 0.008997
vt 0.901531 0.295603
vt 0.893095 0.295603
vt 0.893096 0.008997
vt 0.446522 0.595009
vt 0.446522 0.881614
vt 0.438087 0.881614
vt 0.438088 0.595009
vt 0.981332 0.357469
vt 0.981332 0.329761
vt 0.989767 0.329761
vt 0.989767 0.357469
vt 0.976606 0.786609
vt 0.976606 0.894982
vt 0.968171 0.894982
vt 0.968171 0.786609
vt 0.704107 0.968279
vt 0.676399 0.968279
vt 0.676399 0.959844
vt 0.704107 0.959844
vn 0.0000 0.4190 0.9080
vn 0.0000 1.0000 0.0000
vn -1.0000 0.0000 0.0000
vn 0.0000 -0.0000 1.0000
vn 0.0000 -1.0000 -0.0000
vn 0.0000 0.9080 -0.4190
vn -0.9080 0.4190 0.0000
vn -0.1179 -0.2556 -0.9596
vn 0.9596 -0.2556 0.1179
vn -0.4190 -0.9080 0.0000
vn 0.4190 0.9080 0.0000
vn 0.0000 -0.9080 0.4190
vn 1.0000 0.0000 0.0000
vn 0.9080 0.4190 0.0000
vn 0.1179 -0.2556 -0.9596
vn -0.9596 -0.2556 0.1179
vn 0.4190 -0.9080 0.0000
vn -0.4190 0.9080 0.0000
vn 0.0000 0.4190 -0.9080
vn 0.0000 0.0000 -1.0000
vn 0.0000 0.9080 0.4190
vn -0.1179 -0.2556 0.9596
vn 0.9596 -0.2556 -0.1179
vn 0.0000 -0.9080 -0.4190
vn 0.1179 -0.2556 0.9596
vn -0.9596 -0.2556 -0.1179
usemtl None
s 1
f 1/1/1 2/2/1 3/3/1 4/4/1
f 5/5/2 6/6/2 7/7/2 8/8/2
f 9/9/3 10/10/3 11/11/3 12/12/3
f 13/13/1 14/14/1 15/15/1 16/16/1
f 6/17/2 17/18/2 18/19/2 7/20/2
f 7/21/2 18/22/2 15/23/2 14/24/2
f 19/25/4 4/26/4 10/27/4 9/28/4
f 12/29/5 20/30/5 19/31/5 9/32/5
f 3/33/6 2/34/6 21/35/6 22/36/6
f 11/37/7 23/38/7 24/39/7 25/40/7
f 12/41/3 11/42/3 25/43/3 26/44/3
f 27/45/7 16/46/7 28/47/7 23/48/7
f 3/49/1 13/50/1 16/51/1 27/52/1
f 29/53/1 30/54/1 14/55/1 13/56/1
f 31/57/4 1/58/4 4/59/4 19/60/4
f 28/61/7 18/62/7 17/63/7 32/64/7
f 4/65/1 3/66/1 27/67/1 10/68/1
f 8/69/2 7/70/2 14/71/2 30/72/2
f 10/73/7 27/74/7 23/75/7 11/76/7
f 26/77/5 33/78/5 20/79/5 12/80/5
f 16/81/7 15/82/7 18/83/7 28/84/7
f 20/85/5 34/86/5 31/87/5 19/88/5
f 33/89/5 35/90/5 34/91/5 20/92/5
f 36/93/7 37/94/7 38/95/7 39/96/7
f 21/97/1 40/98/1 41/99/1 22/100/1
f 23/101/8 28/102/8 37/103/8 36/104/8
f 13/105/9 3/106/9 22/107/9 41/108/9
f 28/109/10 32/110/10 38/111/10 37/112/10
f 24/113/11 23/114/11 36/115/11 39/116/11
f 29/117/12 13/118/12 41/119/12 40/120/12
f 1/121/1 42/122/1 43/123/1 2/124/1
f 5/125/2 8/126/2 44/127/2 45/128/2
f 46/129/13 47/130/13 48/131/13 49/132/13
f 50/133/1 51/134/1 52/135/1 53/136/1
f 45/137/2 44/138/2 54/139/2 55/140/2
f 44/141/2 53/142/2 52/143/2 54/144/2
f 56/145/4 46/146/4 49/147/4 42/148/4
f 47/149/5 46/150/5 56/151/5 57/152/5
f 43/153/6 58/154/6 21/155/6 2/156/6
f 48/157/14 59/158/14 60/159/14 61/160/14
f 47/161/13 62/162/13 59/163/13 48/164/13
f 63/165/14 61/166/14 64/167/14 51/168/14
f 43/169/1 63/170/1 51/171/1 50/172/1
f 29/173/1 50/174/1 53/175/1 30/176/1
f 31/177/4 56/178/4 42/179/4 1/180/4
f 64/181/14 65/182/14 55/183/14 54/184/14
f 42/185/1 49/186/1 63/187/1 43/188/1
f 8/189/2 30/190/2 53/191/2 44/192/2
f 49/193/14 48/194/14 61/195/14 63/196/14
f 62/197/5 47/198/5 57/199/5 66/200/5
f 51/201/14 64/202/14 54/203/14 52/204/14
f 57/205/5 56/206/5 31/207/5 34/208/5
f 66/209/5 57/210/5 34/211/5 35/212/5
f 67/213/14 68/214/14 69/215/14 70/216/14
f 21/217/1 58/218/1 71/219/1 40/220/1
f 61/221/15 67/222/15 70/223/15 64/224/15
f 50/225/16 71/226/16 58/227/16 43/228/16
f 64/229/17 70/230/17 69/231/17 65/232/17
f 60/233/18 68/234/18 67/235/18 61/236/18
f 29/237/12 40/238/12 71/239/12 50/240/12
f 72/241/19 73/242/19 74/243/19 75/244/19
f 5/245/2 76/246/2 77/247/2 6/248/2
f 78/249/3 79/250/3 80/251/3 81/252/3
f 82/253/19 83/254/19 84/255/19 85/256/19
f 6/257/2 77/258/2 86/259/2 17/260/2
f 77/261/2 85/262/2 84/263/2 86/264/2
f 87/265/20 78/266/20 81/267/20 73/268/20
f 79/269/5 78/270/5 87/271/5 88/272/5
f 74/273/21 89/274/21 90/275/21 75/276/21
f 80/277/7 25/278/7 24/279/7 91/280/7
f 79/281/3 26/282/3 25/283/3 80/284/3
f 92/285/7 91/286/7 93/287/7 83/288/7
f 74/289/19 92/290/19 83/291/19 82/292/19
f 94/293/19 82/294/19 85/295/19 95/296/19
f 96/297/20 87/298/20 73/299/20 72/300/20
f 93/301/7 32/302/7 17/303/7 86/304/7
f 73/305/19 81/306/19 92/307/19 74/308/19
f 76/309/2 95/310/2 85/311/2 77/312/2
f 81/313/7 80/314/7 91/315/7 92/316/7
f 26/317/5 79/318/5 88/319/5 33/320/5
f 83/321/7 93/322/7 86/323/7 84/324/7
f 88/325/5 87/326/5 96/327/5 97/328/5
f 33/329/5 88/330/5 97/331/5 35/332/5
f 98/333/7 39/334/7 38/335/7 99/336/7
f 90/337/19 89/338/19 100/339/19 101/340/19
f 91/341/22 98/342/22 99/343/22 93/344/22
f 82/345/23 100/346/23 89/347/23 74/348/23
f 93/349/10 99/350/10 38/351/10 32/352/10
f 24/353/11 39/354/11 98/355/11 91/356/11
f 94/357/24 101/358/24 100/359/24 82/360/24
f 72/361/19 75/362/19 102/363/19 103/364/19
f 5/365/2 45/366/2 104/367/2 76/368/2
f 105/369/13 106/370/13 107/371/13 108/372/13
f 109/373/19 110/374/19 111/375/19 112/376/19
f 45/377/2 55/378/2 113/379/2 104/380/2
f 104/381/2 113/382/2 111/383/2 110/384/2
f 114/385/20 103/386/20 106/387/20 105/388/20
f 108/389/5 115/390/5 114/391/5 105/392/5
f 102/393/21 75/394/21 90/395/21 116/396/21
f 107/397/14 117/398/14 60/399/14 59/400/14
f 108/401/13 107/402/13 59/403/13 62/404/13
f 118/405/14 112/406/14 119/407/14 117/408/14
f 102/409/19 109/410/19 112/411/19 118/412/19
f 94/413/19 95/414/19 110/415/19 109/416/19
f 96/417/20 72/418/20 103/419/20 114/420/20
f 119/421/14 113/422/14 55/423/14 65/424/14
f 103/425/19 102/426/19 118/427/19 106/428/19
f 76/429/2 104/430/2 110/431/2 95/432/2
f 106/433/14 118/434/14 117/435/14 107/436/14
f 62/437/5 66/438/5 115/439/5 108/440/5
f 112/441/14 111/442/14 113/443/14 119/444/14
f 115/445/5 97/446/5 96/447/5 114/448/5
f 66/449/5 35/450/5 97/451/5 115/452/5
f 120/453/14 121/454/14 69/455/14 68/456/14
f 90/457/19 101/458/19 122/459/19 116/460/19
f 117/461/25 119/462/25 121/463/25 120/464/25
f 109/465/26 102/466/26 116/467/26 122/468/26
f 119/469/17 65/470/17 69/471/17 121/472/17
f 60/473/18 117/474/18 120/475/18 68/476/18
f 94/477/24 109/478/24 122/479/24 101/480/24
